PathFileType	4	(X/Y/Z)	36_2_18_p0_0-224_filt_butterworth.trc
DataRate	CameraRate	NumFrames	NumMarkers	Units	OrigDataRate	OrigDataStartFrame	OrigNumFrames
46.0	46.0	5	27	m	46.0	140	224
Frame#	Time	RHip			RKnee			RAnkle			RBigToe			RSmallToe			RHeel			LHip			LKnee			LAnkle			LBigToe			LSmallToe			LHeel			Neck			Head			Nose			RShoulder			RElbow			RWrist			RThumb			RIndex			RPinky			LShoulder			LElbow			LWrist			LThumb			LIndex			LPinky			
		X1	Y1	Z1	X2	Y2	Z2	X3	Y3	Z3	X4	Y4	Z4	X5	Y5	Z5	X6	Y6	Z6	X7	Y7	Z7	X8	Y8	Z8	X9	Y9	Z9	X10	Y10	Z10	X11	Y11	Z11	X12	Y12	Z12	X13	Y13	Z13	X14	Y14	Z14	X15	Y15	Z15	X16	Y16	Z16	X17	Y17	Z17	X18	Y18	Z18	X19	Y19	Z19	X20	Y20	Z20	X21	Y21	Z21	X22	Y22	Z22	X23	Y23	Z23	X24	Y24	Z24	X25	Y25	Z25	X26	Y26	Z26	X27	Y27	Z27	
140	3.0434782608695654	0.3076832890943222	0.49630204252754684	-0.09824983361937907	0.352528974526504	0.6386630559936572	0.35271480051952275	0.3793664061775893	0.7354072639369368	0.7254157107781396	0.34875882390880786	0.5529985069096012	0.7657431521462768	0.4104241466958013	0.5750887586672384	0.7613212920086835	0.3590952182144299	0.8171213930158903	0.7857539728682534	0.10781148971279542	0.4830709926529879	-0.07711365896062597	0.11880021407571015	0.6423940836506292	0.37592284561896355	0.14591409474758577	0.709742314506449	0.7503575280238866	0.1799435023638325	0.5583373112872095	0.7821979310860145	0.12023921662236185	0.5942471480694702	0.7924425448051993	0.15570991022880215	0.7303624774099788	0.7854187797169576	0.1763911203652248	0.49443635762560684	-0.5795471091791758	0.156553796168065	0.43461590456107096	-0.8098989781496753	0.14212408730159168	0.3669229843206048	-0.6806078082165974	0.3248468153401246	0.49368278102167495	-0.5001603882948564	0.39743639247785045	0.5417114465977948	-0.23196779271819878	0.4899185677669357	0.5101848016985607	0.003793283300306866	0.4608364715832435	0.4521397106136385	0.133159415034415	0.5115615477940992	0.43014684624150656	0.14763731077994718	0.5137671535576431	0.43222026150012793	0.10807806111133439	0.019965377951130757	0.486912138067397	-0.4761319726966148	0.004640414224441664	0.49406106220556256	-0.22509752945934172	-0.0033028030789214653	0.4055303649456422	0.022820725540915847	0.018546726693909645	0.4066233578243242	0.14214119211170576	-0.0005408937154956739	0.4006674810546892	0.15204300947333513	-0.021996504480033725	0.3988415131227032	0.13980877248117796
141	3.065217391304348	0.30808311934754584	0.4962973452768833	-0.09842152752196558	0.35257000781134507	0.6384637005596074	0.3530132603629563	0.3777216683484634	0.7290946150757847	0.7231108012529541	0.34873332688019854	0.5530745561374999	0.7656853899608256	0.41267331931544915	0.5753599506867059	0.7614116407708115	0.3589778846670284	0.816822446091958	0.7817305379308299	0.10782626603696584	0.4830185831409045	-0.07706493338385126	0.11872439560057158	0.6424398160696695	0.3763418312356342	0.14581744517818163	0.7107482418082508	0.7494918587379572	0.18023042254249025	0.5589907947433074	0.7831196079339491	0.12039122252894277	0.5945409988363193	0.7925064297286044	0.1556752543045583	0.7303249024677694	0.7859811970747556	0.17616429051574706	0.4950762403835658	-0.5795278485674475	0.15647573926568165	0.43412760763295993	-0.8098039599440584	0.14303937623030116	0.3673766158109867	-0.6807344130632629	0.32501036881658485	0.4931445862193495	-0.5002086605366768	0.3965845569826144	0.5378866628668875	-0.23203632853733003	0.48547033668652195	0.5054191783686295	0.005510808298774388	0.45789953122604066	0.4575613479974481	0.133963687245573	0.5060644428439947	0.43021742365006177	0.14856300722552535	0.5159924421380485	0.42929763314464864	0.10633227111963857	0.020066316056259227	0.4870967929909533	-0.47588084461131724	0.004478304231992435	0.4943086634588758	-0.2260502370303446	-0.0032582745141217133	0.40491216428347093	0.021471514262980707	0.018116805658192556	0.4068979516623539	0.1424353594838236	0.0009037839661315006	0.4019555014028716	0.15217162859839362	-0.018159345818174258	0.4038884750490802	0.14198903543747537
142	3.0869565217391304	0.30881164698362784	0.49642904252007525	-0.09906869372428206	0.3525557832230273	0.6384467047921236	0.3515340105628232	0.37579231533520574	0.7247590563808075	0.7208746259049609	0.3487351353068942	0.5530150925246564	0.765719892950384	0.41334465433797096	0.5750507535787235	0.7611205702350261	0.35886526618035397	0.8163816861739037	0.7791321162077101	0.10774599622826657	0.48260754741301204	-0.07708049198216842	0.11831895061881174	0.6415114134437487	0.37568266857721483	0.1456517765067948	0.7112642662756116	0.7494321789810137	0.1798880268663128	0.5587430451703432	0.7837649616050917	0.12058532856212426	0.5939159643272928	0.7921977154825244	0.15572009399163755	0.7301988211901802	0.7861327982870963	0.17630379942530922	0.4945850942951744	-0.5795636393399002	0.1564852032547533	0.4339160609787509	-0.8096652406514416	0.1444815692734482	0.36806278532461334	-0.6809041001873148	0.3248580350665982	0.4937378358315424	-0.5001468247872438	0.3944265656126809	0.5326590301084015	-0.2322452314333427	0.4788324851889574	0.5016372390135406	0.006675870954416194	0.4565519437610336	0.45748697163396507	0.13216075276845152	0.5008493986799698	0.42382883084241685	0.1464855008590741	0.5129676191957327	0.4253718144401048	0.10251564978364781	0.020214118578839205	0.4872339513160339	-0.4762394989769541	0.004349985283593019	0.49486002787795036	-0.2261566638645235	-0.00337328956085815	0.4058217367864053	0.018936023886448366	0.017075566301863777	0.40593908806415124	0.14238777285851834	0.002385884415199084	0.40254591030314435	0.1526907750139171	-0.012543176649312746	0.4104961450837151	0.1445130154093266
143	3.108695652173913	0.3093241175499292	0.4953682950636584	-0.09959509399430627	0.35252323084056203	0.6385477554384978	0.3500359008401972	0.37598118381613876	0.7232873214250525	0.7185430052716111	0.34872139888757536	0.5528613987597599	0.7659740314852792	0.41343804480164303	0.5741742688123198	0.7596199128015979	0.3588446635978427	0.8164290808244136	0.778886078254473	0.1076224128077705	0.4820088211048873	-0.07725960647086214	0.11775578391137685	0.6397112200013291	0.3723707566683366	0.14509492111081507	0.710127015827756	0.7490180426463444	0.17752710142662537	0.5546408289522644	0.7820411407724109	0.12030597989798025	0.5896016473057271	0.7906834247822354	0.1554063965741534	0.7296791659810764	0.7841667627282943	0.176416451403142	0.4944281235874575	-0.5795610781001768	0.15653992093299338	0.43397441754017074	-0.8099052219244418	0.14540776089268456	0.3684847207721702	-0.6809940774899824	0.32381489702845334	0.49753391498727817	-0.4998072801850203	0.3910976451042978	0.5302219574401594	-0.23245010197285665	0.47022072033801215	0.4945634109598759	0.006669035306171052	0.45736959808734123	0.4491877678199434	0.12732356307268233	0.4958536117515653	0.4100453454416532	0.14271962038423086	0.5009710534998624	0.4260291109806458	0.10191493261178548	0.019850727808372458	0.48680814467924954	-0.47823325909098585	0.004604596919669001	0.49431170968752214	-0.22588332417086315	-0.001977035336495086	0.4058081551193367	0.01861269576839706	0.018569795255950573	0.4014940582596227	0.14018825900876145	0.005158423125073422	0.39892780658617155	0.15207540364807975	-0.007133877029588379	0.41420045375351444	0.14651099937126644
144	3.130434782608696	0.3101024866412421	0.49201570255323535	-0.09975348172687021	0.3525878894537393	0.638411413773171	0.3498577736513576	0.3789072942998481	0.7226166916993958	0.7168355242885988	0.34871252103682826	0.5526309997926517	0.765928813594994	0.41358028976328937	0.5701322428909414	0.7561147549492729	0.35892924672000087	0.8169950203784153	0.7794830779920654	0.1078741582669632	0.4828595920544637	-0.07761376946959755	0.11795938657343404	0.6395825744058687	0.3684871663716342	0.14439637100617975	0.7080799819572268	0.7461727892279875	0.17401006729364227	0.5464054835203039	0.7772237304009418	0.11930026694992973	0.5830118455447459	0.7883861608768303	0.15411934787895923	0.7283665245689875	0.7806611844106878	0.17652532458327708	0.49459062135213994	-0.5795475658185271	0.15646399784430823	0.43419224890735586	-0.8109773651017512	0.14581008364535708	0.36864346323286434	-0.6810254836629611	0.3222056157786036	0.5033144381605037	-0.49931028598405286	0.3880442134320297	0.5299427584789357	-0.2327047730306797	0.4597862289293467	0.476711458036335	0.004726480661754454	0.4585833190739268	0.43604719899206607	0.12126250610886094	0.48841434345831153	0.4000718048868982	0.14039411698358273	0.482475966843374	0.4304583523975442	0.10997734668940479	0.01847259915544691	0.48559701326951543	-0.4811675230783118	0.00558220006465163	0.49061176205237694	-0.22585272825810482	0.0009305160630174893	0.4029190711466169	0.02155729127043577	0.029614941525816767	0.3942703189547791	0.1352243806871909	0.011287489691080465	0.3885116054903256	0.14898720898595452	-0.0032670236722300403	0.4140716883057666	0.1474479378726684
